<svg width="56" height="56" viewBox="0 0 56 56" fill="none" xmlns="http://www.w3.org/2000/svg">
<circle cx="28" cy="28" r="28" fill="#BF83FF"/>
<mask id="mask0_54_3769" style="mask-type:alpha" maskUnits="userSpaceOnUse" x="0" y="0" width="56" height="56">
<circle cx="28" cy="28" r="28" fill="#C4C4C4"/>
</mask>
<g mask="url(#mask0_54_3769)">
<path d="M27.9998 14.4962C33.623 14.4962 38.1814 19.0547 38.1815 24.6779V25.7169C39.2133 25.8901 39.9998 26.7853 39.9998 27.8664V30.3595C39.9998 31.463 39.1804 32.3719 38.117 32.5177C37.7206 36.0893 35.4782 39.1023 32.3641 40.5822V43.9318C40.0651 44.3466 46.1815 50.722 46.1815 58.5265H9.81818C9.81818 50.7218 15.9352 44.3453 23.6365 43.9308V40.5822C20.5224 39.1026 18.2794 36.09 17.8826 32.5187C16.8194 32.3727 15.9998 31.4629 15.9998 30.3595V27.8664C15.9998 26.7854 16.7865 25.8902 17.8182 25.7169V24.6779C17.8183 19.0548 22.3767 14.4963 27.9998 14.4962Z" fill="#D0C6AC"/>
<mask id="mask1_54_3769" style="mask-type:luminance" maskUnits="userSpaceOnUse" x="9" y="14" width="38" height="45">
<path d="M27.9998 14.4962C33.623 14.4962 38.1814 19.0547 38.1815 24.6779V25.7169C39.2133 25.8901 39.9998 26.7853 39.9998 27.8664V30.3595C39.9998 31.463 39.1804 32.3719 38.117 32.5177C37.7206 36.0893 35.4782 39.1023 32.3641 40.5822V43.9318C40.0651 44.3466 46.1815 50.722 46.1815 58.5265H9.81818C9.81818 50.7218 15.9352 44.3453 23.6365 43.9308V40.5822C20.5224 39.1026 18.2794 36.09 17.8826 32.5187C16.8194 32.3727 15.9998 31.4629 15.9998 30.3595V27.8664C15.9998 26.7854 16.7865 25.8902 17.8182 25.7169V24.6779C17.8183 19.0548 22.3767 14.4963 27.9998 14.4962Z" fill="white"/>
</mask>
<g mask="url(#mask1_54_3769)">
<rect width="48" height="44.0301" transform="translate(4 14.4962)" fill="#FFCCD7"/>
<rect x="4" y="14.4962" width="48" height="44.0301" fill="#FFCCD7"/>
<path d="M38.1815 32.8255C38.1815 38.4487 33.6231 43.0071 27.9998 43.0071C22.3766 43.007 17.8182 38.4487 17.8182 32.8255V31.3821C17.8182 37.0053 22.3766 41.5636 27.9998 41.5637C33.6231 41.5637 38.1815 37.0054 38.1815 31.3821V32.8255Z" fill="black" fill-opacity="0.1"/>
</g>
<path d="M19.1072 44.9176C19.0967 45.0228 19.0906 45.1292 19.0906 45.236C19.091 48.1737 23.1204 50.5552 28.0906 50.5553C33.061 50.5553 37.0903 48.1738 37.0906 45.236C37.0906 45.1545 37.086 45.0733 37.0799 44.9928C42.4183 47.1666 46.1813 52.4065 46.1815 58.526H9.81818C9.81831 52.3352 13.6698 47.0441 19.1072 44.9176Z" fill="#6223A9"/>
<mask id="mask2_54_3769" style="mask-type:luminance" maskUnits="userSpaceOnUse" x="9" y="44" width="38" height="15">
<path d="M19.1072 44.9176C19.0967 45.0228 19.0906 45.1292 19.0906 45.236C19.091 48.1737 23.1204 50.5552 28.0906 50.5553C33.061 50.5553 37.0903 48.1738 37.0906 45.236C37.0906 45.1545 37.086 45.0733 37.0799 44.9928C42.4183 47.1666 46.1813 52.4065 46.1815 58.526H9.81818C9.81831 52.3352 13.6698 47.0441 19.1072 44.9176Z" fill="white"/>
</mask>
<g mask="url(#mask2_54_3769)">
<rect x="4" y="38.6767" width="48" height="19.8496" fill="#6223A9"/>
</g>
<path fill-rule="evenodd" clip-rule="evenodd" d="M25.4546 34.8872C25.4546 36.2825 26.5942 37.4135 28 37.4135C29.4058 37.4135 30.5455 36.2825 30.5455 34.8872" fill="#0C092A"/>
<g opacity="0.3">
<path fill-rule="evenodd" clip-rule="evenodd" d="M25.8182 31.4586C25.8182 32.2559 26.795 32.9023 28 32.9023C29.205 32.9023 30.1818 32.2559 30.1818 31.4586" fill="#0C092A"/>
</g>
<ellipse cx="23.2727" cy="28.2105" rx="1.09091" ry="1.08271" fill="#0C092A"/>
<ellipse cx="32.7273" cy="28.2105" rx="1.09091" ry="1.08271" fill="#0C092A"/>
<path d="M20.66 25.8933C21.3718 24.8992 23.3232 24.3418 25.0042 24.7515C25.1992 24.799 25.3961 24.6806 25.444 24.4871C25.4919 24.2935 25.3726 24.0981 25.1776 24.0505C23.2255 23.5747 20.9658 24.2202 20.0672 25.4751C19.9509 25.6376 19.9893 25.8629 20.153 25.9784C20.3167 26.0939 20.5437 26.0558 20.66 25.8933Z" fill="#0C092A"/>
<path d="M35.34 25.8933C34.6282 24.8992 32.6768 24.3418 30.9958 24.7515C30.8008 24.799 30.6039 24.6806 30.556 24.4871C30.5081 24.2935 30.6274 24.0981 30.8224 24.0505C32.7745 23.5747 35.0342 24.2202 35.9328 25.4751C36.0491 25.6376 36.0107 25.8629 35.847 25.9784C35.6833 26.0939 35.4563 26.0558 35.34 25.8933Z" fill="#0C092A"/>
<mask id="mask3_54_3769" style="mask-type:luminance" maskUnits="userSpaceOnUse" x="4" y="8" width="48" height="51">
<rect x="4" y="8" width="48" height="50.5263" fill="white"/>
</mask>
<g mask="url(#mask3_54_3769)">
<path d="M28.0005 11.6093C32.4194 11.6905 36.5209 12.6577 38.0005 14.496C40.2412 17.28 44.8846 27.8634 44.9087 34.165C44.9257 38.6402 43.1748 43.1263 40.7271 43.3681C38.7126 43.5671 35.9046 43.1002 32.3638 42.8271V40.582C35.8032 38.9477 38.1821 35.4431 38.1821 31.3818V26.3261C36.2698 25.2805 34.6425 24.018 33.2866 22.7353C33.8973 23.8632 34.5964 24.8871 35.3843 25.6611C29.8227 24.1123 25.9787 20.9404 23.6753 18.4541C22.6166 20.4531 20.7202 23.376 17.8179 25.6035V31.3818C17.8179 35.4431 20.1968 38.9477 23.6362 40.582V42.9638C20.066 43.4492 17.2071 44.3007 15.1607 44.0908C12.5748 43.8254 11.1816 38.6393 11.0913 34.165C10.9794 28.6004 16.2402 16.9855 18.1821 14.6767C19.6228 12.9641 23.5816 11.5282 28.0005 11.6093Z" fill="#E6E6E6"/>
<mask id="mask4_54_3769" style="mask-type:luminance" maskUnits="userSpaceOnUse" x="11" y="11" width="34" height="34">
<path d="M28.0005 11.6093C32.4194 11.6905 36.5209 12.6577 38.0005 14.496C40.2412 17.28 44.8846 27.8634 44.9087 34.165C44.9257 38.6402 43.1748 43.1263 40.7271 43.3681C38.7126 43.5671 35.9046 43.1002 32.3638 42.8271V40.582C35.8032 38.9477 38.1821 35.4431 38.1821 31.3818V26.3261C36.2698 25.2805 34.6425 24.018 33.2866 22.7353C33.8973 23.8632 34.5964 24.8871 35.3843 25.6611C29.8227 24.1123 25.9787 20.9404 23.6753 18.4541C22.6166 20.4531 20.7202 23.376 17.8179 25.6035V31.3818C17.8179 35.4431 20.1968 38.9477 23.6362 40.582V42.9638C20.066 43.4492 17.2071 44.3007 15.1607 44.0908C12.5748 43.8254 11.1816 38.6393 11.0913 34.165C10.9794 28.6004 16.2402 16.9855 18.1821 14.6767C19.6228 12.9641 23.5816 11.5282 28.0005 11.6093Z" fill="white"/>
</mask>
<g mask="url(#mask4_54_3769)">
<rect x="3.81818" y="8" width="48.3636" height="50.5263" fill="#0C092A"/>
</g>
</g>
</g>
</svg>
