<svg width="49" height="49" viewBox="0 0 49 49" fill="none" xmlns="http://www.w3.org/2000/svg">
<path d="M39.251 44.5081L32.9219 38.179L29.5021 41.5988C28.8556 42.2453 28.2516 42.3218 27.6901 41.8284C27.1286 41.3351 26.6438 40.8842 26.2354 40.4758C25.6569 39.8973 25.3677 39.1828 25.3677 38.3321C25.3677 37.4814 25.6569 36.7668 26.2354 36.1883L36.3927 26.0311C36.9712 25.4525 37.6858 25.1633 38.5365 25.1633C39.3871 25.1633 40.1017 25.4525 40.6802 26.0311C41.0885 26.4394 41.5394 26.9243 42.0328 27.4857C42.5262 28.0472 42.4496 28.6512 41.8031 29.2977L38.3833 32.7175L44.6615 39.0467C44.9677 39.3529 45.1208 39.7102 45.1208 40.1186C45.1208 40.5269 44.9677 40.8842 44.6615 41.1904L41.3948 44.5081C41.0885 44.8144 40.7313 44.9675 40.3229 44.9675C39.9146 44.9675 39.5573 44.8144 39.251 44.5081ZM44.4573 12.505L21.7948 35.1675L22.7646 36.1883C23.7854 37.2092 24.0406 38.179 23.5302 39.0977C23.0198 40.0165 22.3902 40.8502 21.6417 41.5988C21.3354 41.905 20.9781 42.0581 20.5698 42.0581C20.1615 42.0581 19.8042 41.905 19.4979 41.5988L16.0781 38.179L9.74896 44.5081C9.44271 44.8144 9.08542 44.9675 8.67708 44.9675C8.26875 44.9675 7.91146 44.8144 7.60521 44.5081L4.2875 41.1904C3.98125 40.8842 3.82812 40.5269 3.82812 40.1186C3.82812 39.7102 3.98125 39.3529 4.2875 39.0467L10.6167 32.7175L7.19688 29.2977C6.89063 28.9915 6.7375 28.6342 6.7375 28.2258C6.7375 27.8175 6.89063 27.4602 7.19688 27.154C7.94548 26.4054 8.77917 25.7758 9.69792 25.2654C10.6167 24.755 11.5865 25.0102 12.6073 26.0311L13.6281 27.0008L35.8312 4.79772C36.1035 4.5255 36.4353 4.30432 36.8266 4.13418C37.2178 3.96404 37.6177 3.87897 38.026 3.87897H43.3854C43.8277 3.87897 44.1936 4.02359 44.4828 4.31282C44.772 4.60206 44.9167 4.96786 44.9167 5.41022V11.4331C44.9167 11.6373 44.8827 11.8244 44.8146 11.9946C44.7465 12.1648 44.6275 12.3348 44.4573 12.505ZM13.1177 21.08L5.00208 12.9644C4.72986 12.6921 4.50868 12.3604 4.33854 11.9691C4.1684 11.5778 4.08333 11.1779 4.08333 10.7696V5.41022C4.08333 4.96786 4.22796 4.60206 4.51719 4.31282C4.80642 4.02359 5.17223 3.87897 5.61458 3.87897H10.974C11.3823 3.87897 11.7822 3.96404 12.1734 4.13418C12.5647 4.30432 12.8965 4.5255 13.1687 4.79772L21.2844 12.9133C21.5906 13.2196 21.7437 13.5769 21.7437 13.9852C21.7437 14.3936 21.5906 14.7508 21.2844 15.0571L15.2615 21.08C14.9552 21.3863 14.5979 21.5394 14.1896 21.5394C13.7812 21.5394 13.424 21.3863 13.1177 21.08Z" fill="white"/>
</svg>
