<svg width="28" height="29" viewBox="0 0 28 29" fill="none" xmlns="http://www.w3.org/2000/svg">
<g clip-path="url(#clip0_57_2057)">
<path fill-rule="evenodd" clip-rule="evenodd" d="M17.206 -0.000305176C16.0784 -0.000305176 15.1643 0.946425 15.1643 2.11428V7.55178C15.1643 8.71963 16.0784 9.66637 17.206 9.66637H25.956C27.0836 9.66637 27.9977 8.71963 27.9977 7.55178V2.11428C27.9977 0.946425 27.0836 -0.000305176 25.956 -0.000305176H17.206ZM17.206 12.0833C16.0784 12.0833 15.1643 13.0301 15.1643 14.1979V26.8856C15.1643 28.0535 16.0784 29.0002 17.206 29.0002H25.956C27.0836 29.0002 27.9977 28.0535 27.9977 26.8856V14.1979C27.9977 13.0301 27.0836 12.0833 25.956 12.0833H17.206ZM0.00228119 2.11457C0.00228119 0.946721 0.916367 -1.01721e-05 2.04394 -1.01721e-05H10.7939C11.9216 -1.01721e-05 12.8357 0.94672 12.8357 2.11457V14.8023C12.8357 15.9702 11.9216 16.9169 10.7939 16.9169H2.04394C0.916367 16.9169 0.00228119 15.9702 0.00228119 14.8023V2.11457ZM2.04394 19.3331C0.916367 19.3331 0.00228119 20.2798 0.00228119 21.4477V26.8852C0.00228119 28.053 0.916367 28.9997 2.04394 28.9997H10.7939C11.9216 28.9997 12.8357 28.053 12.8357 26.8852V21.4477C12.8357 20.2798 11.9216 19.3331 10.7939 19.3331H2.04394Z" fill="white"/>
</g>
<defs>
<clipPath id="clip0_57_2057">
<rect width="28" height="29" fill="white"/>
</clipPath>
</defs>
</svg>
